# File created by Blade
# Date/Time:  Thu Sep 25 15:31:15 2014
# Frame Rate: 120.000 fps
#------------------------------------------------------
:FULLY-SPECIFIED
:DEGREES
1032
root -18.737609 35.610983 -1.647746 200.667565 -62.419651 18.620925
Spine -47.041893 19.601481 2.517589
Head -94.485523 8.516503 -1.579768
LeftShoulder -18.350169 -5.435326 28.017722
LeftArm 104.268639 -64.449297 -68.108963
LeftForeArm 8.669896 -0.000000 26.535052
LeftHand -40.897949 -0.000000 97.239472
LeftHandThumb1 -26.253704 0.000000 33.147579
RightShoulder -24.091199 35.483108 -51.124017
RightArm 79.326980 35.821481 69.563110
RightForeArm -22.268121 0.000000 43.622220
RightHand -11.649192 0.000000 -78.230280
RightHandThumb1 -24.326973 -0.000000 -32.862282
LeftUpLeg -60.688418 34.867678 27.895929
LeftLeg 3.510182 -0.000000 -0.000000
LeftFoot 33.296732 30.442701 -4.067505
LeftToeBase 12.880273 -0.000000 -0.000000
RightUpLeg 25.280147 4.715680 -32.725398
RightLeg 19.903785 -0.000000 -0.000000
RightFoot 44.312093 1.697474 -3.608200
RightToeBase 15.684701 -0.000000 -0.000000
1033
root -18.801158 35.611329 -1.666993 200.509709 -62.468567 18.966936
Spine -47.152648 19.589416 2.563114
Head -94.521186 8.459948 -1.415687
LeftShoulder -18.299169 -5.475528 28.049626
LeftArm 103.105457 -64.771393 -66.623963
LeftForeArm 7.934551 0.000000 26.162141
LeftHand -40.756058 -0.000000 97.337076
LeftHandThumb1 -26.253704 0.000000 33.147579
RightShoulder -24.179887 35.442995 -51.194801
RightArm 79.087833 35.855264 69.192977
RightForeArm -22.071153 -0.000000 43.483054
RightHand -11.728037 -0.000000 -78.459415
RightHandThumb1 -24.326973 -0.000000 -32.862282
LeftUpLeg -60.628796 34.892529 28.146936
LeftLeg 3.473016 -0.000000 -0.000000
LeftFoot 33.433798 30.327808 -3.991451
LeftToeBase 12.799446 -0.000000 -0.000000
RightUpLeg 25.339886 4.881700 -32.677956
RightLeg 20.047049 -0.000000 -0.000000
RightFoot 44.242284 1.749970 -3.643087
RightToeBase 15.570931 -0.000000 -0.000000
1034
root -18.864348 35.614103 -1.688550 200.333221 -62.543592 19.320794
Spine -47.266120 19.538591 2.625456
Head -94.551235 8.437384 -1.262194
LeftShoulder -18.276041 -5.465820 28.155683
LeftArm 102.398351 -64.940315 -65.811133
LeftForeArm 7.564545 -0.000000 25.966229
LeftHand -40.766524 -0.000000 97.380834
LeftHandThumb1 -26.253704 0.000000 33.147579
RightShoulder -24.264734 35.486699 -51.336068
RightArm 78.717855 35.871571 68.867549
RightForeArm -21.954584 -0.000000 43.423081
RightHand -11.874594 -0.000000 -78.586314
RightHandThumb1 -24.326973 -0.000000 -32.862282
LeftUpLeg -60.466161 34.812023 28.585226
LeftLeg 3.443434 -0.000000 -0.000000
LeftFoot 33.598499 30.293656 -3.943462
LeftToeBase 13.014970 -0.000000 -0.000000
RightUpLeg 25.434728 5.066748 -32.590904
RightLeg 20.182405 -0.000000 -0.000000
RightFoot 44.263127 1.804452 -3.818562
RightToeBase 15.648694 -0.000000 -0.000000
1035
root -18.927053 35.617672 -1.709373 200.146754 -62.601062 19.702840
Spine -47.370631 19.485356 2.711820
Head -94.578980 8.506729 -1.165097
LeftShoulder -18.339560 -5.487096 28.241747
LeftArm 100.634584 -65.258519 -63.632524
LeftForeArm 6.606550 -0.000000 25.534659
LeftHand -41.350175 -0.000000 97.512068
LeftHandThumb1 -26.253704 0.000000 33.147579
RightShoulder -24.310367 35.520096 -51.286157
RightArm 78.612635 35.867116 68.484942
RightForeArm -21.822554 -0.000000 43.144205
RightHand -11.942491 0.000000 -78.708102
RightHandThumb1 -24.326973 -0.000000 -32.862282
LeftUpLeg -60.263128 34.709266 29.085319
LeftLeg 3.425219 -0.000000 -0.000000
LeftFoot 33.659453 30.418400 -4.029733
LeftToeBase 13.057073 -0.000000 -0.000000
RightUpLeg 25.486640 5.349427 -32.447901
RightLeg 20.360435 -0.000000 -0.000000
RightFoot 44.275462 1.844462 -3.886554
RightToeBase 15.526735 -0.000000 -0.000000
1036
root -18.987286 35.629708 -1.731393 199.909573 -62.639824 20.058900
Spine -47.401657 19.500622 2.743946
Head -94.646336 8.475209 -1.097005
LeftShoulder -18.222953 -5.613663 28.334506
LeftArm 99.384586 -65.539201 -62.098369
LeftForeArm 6.032220 -0.000000 25.020503
LeftHand -40.740946 -0.000000 97.771489
LeftHandThumb1 -26.253704 0.000000 33.147579
RightShoulder -24.455428 35.553210 -51.413836
RightArm 78.267984 35.882988 67.976668
RightForeArm -21.606115 -0.000000 42.917270
RightHand -12.013664 -0.000000 -78.963173
RightHandThumb1 -24.326973 -0.000000 -32.862282
LeftUpLeg -59.938126 34.579824 29.678465
LeftLeg 3.417744 -0.000000 -0.000000
LeftFoot 33.626706 30.532493 -4.297207
LeftToeBase 13.134137 -0.000000 -0.000000
RightUpLeg 25.639180 5.548028 -32.386547
RightLeg 20.531811 -0.000000 -0.000000
RightFoot 44.089908 1.697079 -3.944459
RightToeBase 15.683795 -0.000000 -0.000000
1037
root -19.051752 35.641760 -1.751414 199.755615 -62.666711 20.367084
Spine -47.481148 19.465914 2.724875
Head -94.738808 8.537632 -0.996000
LeftShoulder -18.215097 -5.658172 28.574853
LeftArm 98.543443 -65.637323 -61.216419
LeftForeArm 5.699367 -0.000000 24.769726
LeftHand -40.794357 -0.000000 97.841960
LeftHandThumb1 -26.253704 0.000000 33.147579
RightShoulder -24.277307 35.209400 -50.970132
RightArm 78.723588 36.119904 67.711988
RightForeArm -21.352379 -0.000000 42.525696
RightHand -11.982766 -0.000000 -79.164222
RightHandThumb1 -24.326973 -0.000000 -32.862282
LeftUpLeg -59.679971 34.453336 30.189407
LeftLeg 3.443114 -0.000000 -0.000000
LeftFoot 33.657539 30.736896 -4.369300
LeftToeBase 13.127816 -0.000000 -0.000000
RightUpLeg 25.752453 5.882439 -32.292716
RightLeg 20.698352 -0.000000 -0.000000
RightFoot 43.946601 1.919351 -4.017118
RightToeBase 15.633997 -0.000000 -0.000000
1038
root -19.099003 35.654649 -1.766262 199.616404 -62.646547 20.564398
Spine -47.495379 19.441314 2.747907
Head -94.883174 8.591128 -0.882190
LeftShoulder -18.280160 -5.557461 28.676097
LeftArm 97.985357 -65.713481 -60.474341
LeftForeArm 5.365221 -0.000000 24.447660
LeftHand -40.777413 0.000000 97.874709
LeftHandThumb1 -26.253704 0.000000 33.147579
RightShoulder -24.171235 35.095043 -50.708437
RightArm 78.951483 36.171024 67.473280
RightForeArm -21.198818 -0.000000 42.151604
RightHand -11.991898 0.000000 -79.395162
RightHandThumb1 -24.326973 -0.000000 -32.862282
LeftUpLeg -59.246687 34.279568 30.751130
LeftLeg 3.475232 -0.000000 -0.000000
LeftFoot 33.575989 30.859924 -4.478815
LeftToeBase 13.102543 -0.000000 -0.000000
RightUpLeg 25.824487 6.493716 -32.095967
RightLeg 21.003816 -0.000000 -0.000000
RightFoot 44.108890 1.694184 -3.885837
RightToeBase 15.516397 -0.000000 -0.000000
1039
root -19.159153 35.669530 -1.788158 199.428548 -62.685806 20.908596
Spine -47.610159 19.354767 2.802760
Head -94.925715 8.719979 -0.768916
LeftShoulder -18.205988 -5.438163 28.854734
LeftArm 97.067421 -65.987429 -59.395534
LeftForeArm 4.935133 -0.000000 24.127213
LeftHand -40.874517 -0.000000 97.939953
LeftHandThumb1 -26.253704 0.000000 33.147579
RightShoulder -23.984050 35.051044 -50.432834
RightArm 79.025886 36.296650 67.110271
RightForeArm -21.032713 -0.000000 41.767506
RightHand -12.013415 0.000000 -79.547748
RightHandThumb1 -24.326973 -0.000000 -32.862282
LeftUpLeg -58.997513 34.167195 31.239321
LeftLeg 3.522634 -0.000000 -0.000000
LeftFoot 33.665527 31.017003 -4.474888
LeftToeBase 13.204285 -0.000000 -0.000000
RightUpLeg 25.886064 6.877788 -31.906423
RightLeg 21.304911 -0.000000 -0.000000
RightFoot 44.070921 1.656059 -3.977851
RightToeBase 15.441404 -0.000000 -0.000000
1040
root -19.216845 35.689589 -1.806040 199.313168 -62.707536 21.092499
Spine -47.590954 19.325270 2.775958
Head -95.054423 8.648494 -0.726930
LeftShoulder -18.126676 -5.462242 29.001934
LeftArm 95.772597 -66.224235 -57.929615
LeftForeArm 4.559133 -0.000000 23.877263
LeftHand -41.844812 -0.000000 97.533004
LeftHandThumb1 -26.253704 0.000000 33.147579
RightShoulder -24.317486 35.471018 -50.917113
RightArm 78.309301 36.078045 66.894823
RightForeArm -21.083757 -0.000000 41.702620
RightHand -12.010119 -0.000000 -79.539424
RightHandThumb1 -24.326973 -0.000000 -32.862282
LeftUpLeg -58.757302 34.077537 31.553067
LeftLeg 3.599626 -0.000000 -0.000000
LeftFoot 33.726191 31.112043 -4.515774
LeftToeBase 13.153079 -0.000000 -0.000000
RightUpLeg 26.019966 7.250358 -31.827183
RightLeg 21.607111 -0.000000 -0.000000
RightFoot 44.064119 1.605299 -3.937369
RightToeBase 14.954422 -0.000000 -0.000000
1041
root -19.278113 35.707608 -1.828204 199.020694 -62.753610 21.503778
Spine -47.610555 19.333364 2.879401
Head -95.162459 8.536660 -0.713603
LeftShoulder -18.099801 -5.413674 29.161818
LeftArm 95.005807 -66.363929 -57.108388
LeftForeArm 4.261936 -0.000000 23.602574
LeftHand -42.023710 -0.000000 97.315030
LeftHandThumb1 -26.253704 0.000000 33.147579
RightShoulder -24.335695 35.488533 -51.002813
RightArm 78.212141 36.138452 66.696609
RightForeArm -21.014930 0.000000 41.431330
RightHand -12.112116 -0.000000 -79.796317
RightHandThumb1 -24.326973 -0.000000 -32.862282
LeftUpLeg -58.573375 34.046573 31.877053
LeftLeg 3.650795 -0.000000 -0.000000
LeftFoot 33.914784 31.213062 -4.433151
LeftToeBase 13.152072 -0.000000 -0.000000
RightUpLeg 26.098207 7.577389 -31.636826
RightLeg 21.947756 -0.000000 -0.000000
RightFoot 43.977121 1.354997 -3.786047
RightToeBase 15.541822 -0.000000 -0.000000
